<svg xmlns="http://www.w3.org/2000/svg" width="240" height="240" viewBox="0 0 240 240">
  <rect width="240" height="240" rx="26" fill="#ffffff"/>
  <rect x="14" y="14" width="212" height="212" rx="20" fill="#f3f4f7"/>
  <rect x="28" y="28" width="184" height="184" rx="18" fill="#ffffff"/>
  <g fill="#111827" opacity=".85">
    <rect x="44" y="44" width="54" height="54" rx="8"/>
    <rect x="142" y="44" width="54" height="54" rx="8"/>
    <rect x="44" y="142" width="54" height="54" rx="8"/>

    <rect x="62" y="62" width="18" height="18" rx="4" fill="#f3f4f7"/>
    <rect x="160" y="62" width="18" height="18" rx="4" fill="#f3f4f7"/>
    <rect x="62" y="160" width="18" height="18" rx="4" fill="#f3f4f7"/>

    <rect x="112" y="112" width="16" height="16" rx="3"/>
    <rect x="132" y="112" width="10" height="10" rx="2"/>
    <rect x="112" y="132" width="26" height="10" rx="2"/>
    <rect x="152" y="132" width="18" height="18" rx="4"/>
    <rect x="112" y="152" width="10" height="10" rx="2"/>
    <rect x="132" y="152" width="10" height="10" rx="2"/>
    <rect x="112" y="172" width="58" height="10" rx="2"/>
  </g>
  <text x="120" y="220" text-anchor="middle" font-family="Arial" font-size="12" fill="#6b7280">USDT-TRC20</text>
</svg>
